<svg width="45" height="45" viewBox="0 0 59 59" fill="none" xmlns="http://www.w3.org/2000/svg">
    <path
        fillRule="evenodd"
        clipRule="evenodd"
        d="M29.0588 58.5365C45.1076 58.5365 58.1177 45.4327 58.1177 29.2682C58.1177 13.1039 45.1076 0 29.0588 0C13.0101 0 0 13.1039 0 29.2682C0 45.4327 13.0101 58.5365 29.0588 58.5365ZM38.1242 13.6344C38.5654 12.0557 37.0444 11.1221 35.6552 12.119L16.2629 26.0335C14.7564 27.1145 14.9934 29.2682 16.6189 29.2682H21.7254V29.2284H31.6778L23.5685 32.1103L19.9935 44.9022C19.5523 46.4809 21.0732 47.4144 22.4625 46.4176L41.8548 32.5031C43.3613 31.4221 43.1242 29.2682 41.4988 29.2682H33.7549L38.1242 13.6344Z"
        fill="#00AEBD"
        style="fill: #00AEBD;fill:color(display-p3 0.0000 0.6824 0.7412);fill-opacity:1"
    />
</svg>