<svg width="24" height="24" viewBox="0 0 24 24" fill="none" xmlns="http://www.w3.org/2000/svg">
<path d="M22.2491 8.27475C22.2239 8.27475 22.1993 8.28705 22.1741 8.28705C22.0493 8.31225 21.9239 8.32455 21.7868 8.34975C21.2618 8.39955 20.6994 8.37494 20.1246 8.26245C19.9746 8.22495 19.8498 8.19975 19.7121 8.14995C19.2996 8.04976 18.9123 7.88746 18.5496 7.67477C18.3996 7.59977 18.2496 7.49958 18.1119 7.41228C17.512 6.99979 16.9993 6.48711 16.5868 5.88713C16.4995 5.74944 16.3993 5.59944 16.3243 5.44945C16.1116 5.08676 15.9493 4.69947 15.8491 4.28698C15.7993 4.14929 15.7741 4.02449 15.7366 3.8745C15.6241 3.29971 15.5989 2.73723 15.6493 2.21224C15.6745 2.07455 15.6868 1.94975 15.712 1.82495C15.712 1.79976 15.7243 1.77515 15.7243 1.74995C15.8743 0.974782 15.2995 0.25 14.4992 0.25H6.89979C6.7246 0.25 6.54999 0.262304 6.38711 0.275195C6.23711 0.287499 6.09942 0.300389 5.94942 0.324998C5.79943 0.337302 5.64943 0.362497 5.51174 0.387691C2.50012 0.825373 0.574787 2.73781 0.137691 5.76233C0.112496 5.90002 0.0878879 6.05001 0.0749977 6.20001C0.0498031 6.35001 0.0374988 6.4877 0.0251945 6.63769C0.0128902 6.79999 0 6.97518 0 7.15037V17.0999C0 17.2751 0.0123043 17.4497 0.0251945 17.6125C0.0374988 17.7625 0.0503891 17.9002 0.0749977 18.0502C0.087302 18.2002 0.112496 18.3502 0.137691 18.4879C0.575373 21.513 2.50012 23.4254 5.51233 23.8625C5.65002 23.8877 5.80001 23.9123 5.95001 23.9252C6.10001 23.9504 6.2377 23.9627 6.38769 23.975C6.54999 23.9873 6.72518 24.0002 6.90037 24.0002H16.8499C17.0251 24.0002 17.1997 23.9879 17.3625 23.975C17.5125 23.9627 17.6502 23.9498 17.8002 23.9252C17.9502 23.9129 18.1002 23.8877 18.2379 23.8625C21.2501 23.4249 23.1754 21.5124 23.6125 18.4879C23.6377 18.3502 23.6623 18.2002 23.6752 18.0502C23.7004 17.9002 23.7127 17.7625 23.725 17.6125C23.7373 17.4502 23.7502 17.2751 23.7502 17.0999V9.49991C23.7502 8.70013 23.0255 8.12475 22.2503 8.27475H22.2491ZM5.93712 12.1248H12.1871C12.6998 12.1248 13.1246 12.5496 13.1246 13.0623C13.1246 13.575 12.6998 13.9998 12.1871 13.9998H5.93712C5.42444 13.9998 4.99965 13.575 4.99965 13.0623C4.99965 12.5496 5.42444 12.1248 5.93712 12.1248ZM17.1868 18.9994H5.93712C5.42444 18.9994 4.99965 18.5746 4.99965 18.0619C4.99965 17.5493 5.42444 17.1245 5.93712 17.1245H17.1868C17.6994 17.1245 18.1242 17.5493 18.1242 18.0619C18.1242 18.5746 17.6994 18.9994 17.1868 18.9994Z" fill="#00AEBD" style="fill:#00AEBD;fill:color(display-p3 0.0000 0.6824 0.7412);fill-opacity:1;"/>
</svg>
