<svg width="25" height="25" viewBox="0 0 25 25" fill="none" xmlns="http://www.w3.org/2000/svg">
<path d="M24.4439 10.3241L21.5764 9.61906C21.404 9.07564 21.1824 8.54833 20.9148 8.04396C21.3454 7.32721 22.2502 5.81899 22.2502 5.81899C22.4235 5.53093 22.3776 5.16181 22.1398 4.92452L20.0686 2.85335C19.8314 2.61508 19.4627 2.56967 19.1737 2.743L16.9453 4.07837C16.4439 3.81325 15.9195 3.59354 15.3795 3.42265L14.6744 0.555143C14.5929 0.22899 14.3004 0 13.964 0H11.0345C10.6986 0 10.4052 0.22899 10.3241 0.555143C10.3241 0.555143 9.83536 2.55649 9.61955 3.42216C9.0439 3.60477 8.4873 3.84108 7.95754 4.13013L5.64664 2.74349C5.3576 2.57163 4.98994 2.61606 4.75216 2.85384L2.681 4.925C2.4437 5.16229 2.39781 5.53141 2.57065 5.81997L3.99977 8.20655C3.76931 8.66062 3.57645 9.13325 3.42265 9.6176L0.555143 10.3251C0.22899 10.4066 0 10.6991 0 11.0355V13.965C0 14.3014 0.22899 14.5944 0.555143 14.6754L3.42314 15.3804C3.59696 15.9317 3.82302 16.4678 4.09693 16.9819L2.81819 19.1131C2.64535 19.4012 2.69076 19.7703 2.92854 20.0081L4.99971 22.0793C5.23651 22.3161 5.60563 22.361 5.89419 22.1896C5.89419 22.1896 7.32818 21.3298 8.03078 20.9094C8.53905 21.1804 9.07125 21.4045 9.62004 21.5783L10.3246 24.4449C10.4052 24.771 10.6986 25 11.0345 25H13.964C14.3004 25 14.5929 24.771 14.6744 24.4449L15.379 21.5783C15.9434 21.3996 16.4868 21.1687 17.0039 20.8879C17.7255 21.3205 19.1737 22.1896 19.1737 22.1896C19.4618 22.362 19.8309 22.3175 20.0686 22.0793L22.1398 20.0081C22.3771 19.7708 22.423 19.4017 22.2502 19.1131L20.9333 16.9194C21.1931 16.4268 21.4084 15.9112 21.5764 15.3804L24.4439 14.6754C24.77 14.5939 24.999 14.3014 24.999 13.965V11.0355C24.999 10.6996 24.77 10.4066 24.4439 10.3251V10.3241ZM12.4998 17.6259C9.67326 17.6259 7.3731 15.3258 7.3731 12.4993C7.3731 9.67277 9.67326 7.37261 12.4998 7.37261C15.3263 7.37261 17.6264 9.67277 17.6264 12.4993C17.6264 15.3258 15.3263 17.6259 12.4998 17.6259Z" fill="#00AEBD" style="fill:#00AEBD;fill:color(display-p3 0.0000 0.6824 0.7412);fill-opacity:1;"/>
</svg>
